<svg data-v-423bf9ae="" xmlns="http://www.w3.org/2000/svg" viewBox="0 0 319 90" class="iconLeft"><!----><defs data-v-423bf9ae=""><linearGradient data-v-423bf9ae="" gradientTransform="rotate(25)" id="51600816-8505-4a92-9206-bc83e2461bd0" x1="0%" y1="0%" x2="100%" y2="0%"><stop data-v-423bf9ae="" offset="0%" style="stop-color: rgb(0, 21, 214); stop-opacity: 1;"></stop><stop data-v-423bf9ae="" offset="100%" style="stop-color: rgb(9, 137, 251); stop-opacity: 1;"></stop></linearGradient></defs><!----><g data-v-423bf9ae="" id="80841390-9164-46ed-aa34-6c0792673d50" fill="#ffffff" transform="matrix(4.601226806640625,0,0,4.601226806640625,92.78691864013672,11.503069877624512)"><path d="M6.68 1.44L6.68 0.76L1.25 0.76L1.25 10.64L2.37 10.64L2.37 5.99L6.37 5.99L6.37 5.28L2.37 5.28L2.37 1.44ZM13.45 7.10C13.45 4.52 12.53 3.40 10.46 3.40C8.47 3.40 7.27 4.69 7.27 7.11C7.27 9.53 8.33 10.81 10.33 10.81C12.52 10.81 13.45 9.42 13.45 7.10ZM12.36 7.08C12.36 8.96 11.86 10.19 10.39 10.19C9.03 10.19 8.36 9.14 8.36 7.13C8.36 5.00 9.13 4.03 10.43 4.03C11.80 4.03 12.36 4.98 12.36 7.08ZM16.42 10.64L16.42 6.40C16.42 5.78 16.53 5.26 16.80 4.90C17.11 4.48 17.53 4.34 17.99 4.34C18.27 4.34 18.62 4.38 18.90 4.51L18.90 3.54C18.66 3.47 18.42 3.44 18.14 3.44C17.50 3.44 16.73 3.86 16.38 4.62C16.38 4.41 16.34 3.92 16.27 3.58L15.23 3.58C15.33 4.23 15.37 5.04 15.37 5.73L15.37 10.64ZM25.47 7.10L25.47 6.82C25.47 6.06 25.40 5.33 25.13 4.76C24.74 3.93 24.15 3.40 22.74 3.40C20.80 3.40 19.70 4.72 19.70 7.08C19.70 9.67 20.79 10.82 22.86 10.82C23.98 10.82 24.70 10.56 25.19 10.29L25.19 9.49C24.61 9.80 24.01 10.11 23.03 10.11C21.59 10.11 20.79 9.09 20.78 7.10ZM24.33 6.51L20.80 6.51C20.86 4.61 21.80 4.02 22.69 4.02C24.08 4.02 24.33 5.00 24.33 6.51ZM26.43 9.53L26.43 10.44C27.05 10.68 27.73 10.82 28.34 10.82C30.03 10.82 30.98 10.07 30.98 8.76C30.98 7.78 30.52 7.29 29.30 6.75L28.56 6.43C27.93 6.15 27.62 5.81 27.62 5.29C27.62 4.49 28.27 4.09 28.99 4.09C29.64 4.09 30.11 4.23 30.67 4.51L30.67 3.64C30.20 3.49 29.65 3.40 29.02 3.40C27.51 3.40 26.61 4.16 26.61 5.38C26.61 6.24 27.06 6.89 28.07 7.32L28.67 7.57C29.47 7.91 29.90 8.23 29.90 8.88C29.90 9.63 29.48 10.11 28.34 10.11C27.71 10.11 27.05 9.87 26.43 9.53ZM37.87 3.58L36.86 3.58C35.67 7.31 35.24 8.88 34.93 9.91C34.55 8.78 34.05 7.36 32.65 3.58L31.47 3.58L34.20 10.64L34.59 10.64L34.38 11.30C34.22 11.86 33.99 12.43 33.73 12.70C33.43 13.01 33.10 13.06 32.79 13.06C32.59 13.06 32.30 13.02 32.13 12.96L32.13 13.72C32.37 13.78 32.61 13.80 32.82 13.80C33.54 13.80 34.15 13.59 34.55 12.98C34.78 12.61 34.93 12.22 35.24 11.33ZM42.55 10.58L42.55 9.88C42.31 9.97 41.93 10.01 41.65 10.01C41.27 10.01 40.96 9.87 40.85 9.62C40.77 9.42 40.71 9.11 40.71 8.51L40.71 4.21L42.29 4.21L42.29 3.58L40.71 3.58L40.71 1.76L39.76 1.76C39.69 2.79 39.66 3.58 39.66 3.58L38.58 3.58L38.58 4.21L39.66 4.21L39.66 8.53C39.66 9.21 39.69 9.65 39.90 10.02C40.15 10.50 40.64 10.74 41.45 10.74C41.80 10.74 42.25 10.67 42.55 10.58ZM49.11 7.10L49.11 6.82C49.11 6.06 49.04 5.33 48.78 4.76C48.38 3.93 47.80 3.40 46.38 3.40C44.45 3.40 43.34 4.72 43.34 7.08C43.34 9.67 44.44 10.82 46.51 10.82C47.63 10.82 48.34 10.56 48.83 10.29L48.83 9.49C48.26 9.80 47.66 10.11 46.68 10.11C45.23 10.11 44.44 9.09 44.42 7.10ZM47.98 6.51L44.45 6.51C44.51 4.61 45.44 4.02 46.34 4.02C47.73 4.02 47.98 5.00 47.98 6.51Z"></path></g><!----><g data-v-423bf9ae="" id="96928639-f5de-48aa-b5bd-c44dd711f89d" transform="matrix(1.6922376155853271,0,0,1.6922376155853271,-15.907085418701172,-9.140951156616211)" stroke="none" fill="#ffffff"><path d="M38.902 15.585a3.012 3.012 0 100 6.024 3.012 3.012 0 000-6.024zm-11.881 0a3.011 3.011 0 10-.001 6.023 3.011 3.011 0 00.001-6.023zm-5.94 26.686a3.012 3.012 0 003.012 3.012H41.83a3.013 3.013 0 003.012-3.012v-9.184H21.081v9.184zm-6.449-27.483a3.017 3.017 0 010-4.262 3.012 3.012 0 012.131-.88c.772 0 1.544.293 2.131.88l-.704.52a23.983 23.983 0 0114.77-5.064 23.987 23.987 0 0114.77 5.064l-.701-.518a2.999 2.999 0 012.131-.881c.77 0 1.543.293 2.129.881a3.02 3.02 0 01.879 2.131c0 .772-.291 1.544-.879 2.131l.703.518c10.184 10.184-7.15 14.77-7.15 14.77H21.081c-.5 0-18.045-3.875-7.15-14.77l.701-.52zM16.917 35.35a3.664 3.664 0 01-7.328 0 3.664 3.664 0 017.328 0zM56 36.8a3.666 3.666 0 01-3.664 3.665 3.665 3.665 0 010-7.329A3.665 3.665 0 0156 36.8zM39.512 59.166a3.665 3.665 0 010-7.328 3.665 3.665 0 010 7.328zM26.077 59.166a3.664 3.664 0 010-7.328 3.664 3.664 0 010 7.328z"></path></g><!----></svg>